ply
format ascii 1.0
comment Created by Blender 2.62 (sub 0) - www.blender.org, source file: 'level_test.blend'
element vertex 25
property float x
property float y
property float z
element face 23
property list uchar uint vertex_indices
end_header
-9.587969 -6.393709 -0.021798
-10.147391 -4.156031 -0.014252
-13.130980 -6.207235 -0.021169
31.187737 -8.880017 -0.030181
27.271776 -4.404661 -0.015091
26.836670 -6.518023 -0.022217
-11.452711 -11.366326 -0.038565
-8.220491 -8.755702 -0.029762
26.090773 -8.258440 -0.028086
-6.977330 -10.309645 -0.035002
28.079832 -13.728319 -0.046530
24.723295 -10.123172 -0.034373
23.045027 -11.490642 -0.038984
-2.874896 -12.485165 -0.042338
-5.236903 -11.614957 -0.039404
-5.982800 -14.474213 -0.049045
1.289696 -12.795954 -0.043386
5.205655 -12.920269 -0.043805
31.312052 -2.229141 -0.007755
27.333935 -2.291299 -0.007965
-13.130980 -2.291299 -0.007965
-10.271708 -2.415614 -0.008384
20.807335 -12.423007 -0.042128
18.693960 -12.795954 -0.043386
20.807337 -14.722843 -0.049883
3 0 1 2
3 3 4 5
3 0 2 6
3 7 0 6
3 3 5 8
3 9 7 6
3 10 11 12
3 13 14 15
3 16 13 15
3 17 16 15
3 18 19 4
3 18 4 3
3 20 2 1
3 1 21 20
3 8 11 10
3 8 10 3
3 9 6 15
3 9 15 14
3 22 23 24
3 17 15 24
3 17 24 23
3 12 22 24
3 12 24 10
