ply
format ascii 1.0
comment Created by Blender 2.68 (sub 0) - www.blender.org, source file: 'sausage_end.blend'
element vertex 15
property float x
property float y
property float z
element face 12
property list uchar uint vertex_indices
end_header
0.000000 -0.030000 0.000000
0.056424 -0.030000 0.000000
0.056424 0.030000 0.000000
-0.029544 -0.005209 0.000000
-0.029544 0.005209 0.000000
-0.049048 -0.014930 0.000000
-0.025981 -0.015000 0.000000
-0.025981 0.015000 0.000000
-0.019284 -0.022981 0.000000
-0.019284 0.022981 0.000000
-0.010261 -0.028191 0.000000
-0.010261 0.028191 0.000000
0.000000 -0.030000 0.000000
0.000000 0.030000 0.000000
-0.049048 0.014930 0.000000
3 0 1 2
3 3 4 5
3 6 7 4
3 8 9 7
3 10 11 9
3 12 13 11
3 13 0 2
3 3 6 4
3 6 8 7
3 8 10 9
3 10 12 11
3 4 14 5
