ply
format ascii 1.0
comment Created by Blender 2.68 (sub 0) - www.blender.org, source file: 'sausage_end.blend'
element vertex 15
property float x
property float y
property float z
element face 12
property list uchar uint vertex_indices
end_header
-0.028731 -0.030000 0.000000
0.001269 -0.030000 0.000000
0.001269 0.030000 0.000000
-0.058275 -0.005209 0.000000
-0.058275 0.005209 0.000000
-0.077779 -0.014930 0.000000
-0.054712 -0.015000 0.000000
-0.054712 0.015000 0.000000
-0.048015 -0.022981 0.000000
-0.048015 0.022981 0.000000
-0.038991 -0.028191 0.000000
-0.038992 0.028191 0.000000
-0.028731 -0.030000 0.000000
-0.028731 0.030000 0.000000
-0.077779 0.014930 0.000000
3 0 1 2
3 3 4 5
3 6 7 4
3 8 9 7
3 10 11 9
3 12 13 11
3 13 0 2
3 3 6 4
3 6 8 7
3 8 10 9
3 10 12 11
3 4 14 5
